<?xml version="1.0" encoding="utf-8"?>
<!-- Generator: Adobe Illustrator 15.1.0, SVG Export Plug-In . SVG Version: 6.00 Build 0)  -->
<!DOCTYPE svg PUBLIC "-//W3C//DTD SVG 1.1//EN" "http://www.w3.org/Graphics/SVG/1.1/DTD/svg11.dtd">
<svg version="1.1" id="Layer_1" xmlns="http://www.w3.org/2000/svg" xmlns:xlink="http://www.w3.org/1999/xlink" x="0px" y="0px"
	 width="100px" height="36.668px" viewBox="0 0 100 36.668" enable-background="new 0 0 100 36.668" xml:space="preserve">
<g id="Layer_1_1_" display="none">
	<g id="St9YL3_1_" display="inline" opacity="0.39">
	</g>
</g>
<g id="Layer_2">
	<path fill="#257EE8" d="M15.228,21.408c-4.213,0-7.629,3.418-7.629,7.632c0,4.213,3.416,7.629,7.629,7.629
		c4.215,0,7.63-3.416,7.63-7.629C22.858,24.826,19.442,21.408,15.228,21.408z M15.228,32.24c-1.778,0-3.219-1.44-3.219-3.22
		s1.441-3.221,3.219-3.221c1.777,0,3.219,1.441,3.219,3.221C18.446,30.799,17.005,32.24,15.228,32.24z"/>
	<path fill="#257EE8" d="M82.234,21.406c-4.216,0-7.632,3.417-7.632,7.629c0,4.214,3.416,7.632,7.632,7.632
		c4.212,0,7.63-3.418,7.63-7.632C89.864,24.823,86.446,21.406,82.234,21.406z M82.234,32.24c-1.778,0-3.222-1.44-3.222-3.22
		s1.442-3.221,3.222-3.221c1.778,0,3.223,1.441,3.223,3.221S84.013,32.24,82.234,32.24z"/>
	<path fill="#257EE8" d="M77.935,10.566c0,0-18.765-8.75-24.754-10.019C47.193-0.72,26.583,0.432,24.626,1.699l-11.515,5.64
		L1.829,12.866l-1.827,10.65c0,0-0.05,6.318,0.388,7.773h5.527l0.071-2.25c0-5.104,4.138-9.24,9.243-9.24
		c5.103,0,9.238,4.137,9.238,9.24l0.158,2.25h48.359l0.007-2.83c0-5.104,3.855-8.871,8.959-8.871s9.523,3.769,9.523,8.871
		l0.189,2.615c0,0,5.846,0.33,7.688-0.361c0,0,0.69-9.787-2.877-13.356C93.308,14.359,86.917,12.491,77.935,10.566z M25.66,11.947
		c0,0,2.363-5.011,4.943-6.924C32.514,3.395,43.049,3.44,43.049,3.44l0.389,9.715L25.66,11.947z M71.317,14.249L46.619,13.27
		l-0.577-9.846c9.154-0.344,19.576,4.549,25.562,8.061C77.595,14.997,71.317,14.249,71.317,14.249z"/>
</g>
</svg>
